<?xml version="1.0" encoding="UTF-8"?>
<svg width="20px" height="20px" viewBox="0 0 20 20" version="1.1" xmlns="http://www.w3.org/2000/svg" xmlns:xlink="http://www.w3.org/1999/xlink">
    <!-- Generator: Sketch 50.2 (55047) - http://www.bohemiancoding.com/sketch -->
    <title>Artboard 1</title>
    <desc>Created with Sketch.</desc>
    <defs></defs>
    <g id="Artboard-1" stroke="none" stroke-width="1" fill="none" fill-rule="evenodd">
        <path d="M14.995,1.413 C14.919,0.746 13.967,0.469 13.133,0.303 C12.157,0.108 10.867,0 9.499002,0 C8.131001,0 6.841002,0.107 5.865002,0.303 C5.031002,0.47 4.080002,0.746 4.003002,1.413 L2.017002,8.363 C2.004002,8.408 1.998002,8.454 1.998002,8.5 C1.998002,9.062 2.645002,9.281 2.888001,9.363 C3.270001,9.492 3.804001,9.606 4.477001,9.702 C5.482001,9.846 6.733001,9.941 8.090001,9.98 C8.030001,10.141999 7.997001,10.316999 7.997001,10.5 C7.997001,10.781 8.075001,11.044 8.210001,11.269 C7.382001,11.664001 6.997001,12.415 6.997001,13 C6.997001,13.933001 7.326001,14.665 7.616001,15.311 C7.820001,15.765 7.997001,16.157999 7.997001,16.5 C7.997001,16.804001 7.387001,17.172001 6.984001,17.415001 C6.454,17.735001 5.997001,18.011002 5.997001,18.5 C5.997001,19.6009998 8.09,20 9.497001,20 C10.904,20 12.997,19.6009998 12.997,18.5 C12.997,18.011 12.54,17.735001 12.01,17.415001 C11.607,17.172001 10.997,16.803001 10.997,16.5 C10.997,16.158001 11.173,15.765 11.378,15.311 C11.668,14.665 11.997,13.933 11.997,13 C11.997,12.416 11.612,11.664 10.784,11.269 C10.919,11.044 10.997,10.781 10.997,10.5 C10.997,10.317 10.964,10.142 10.904,9.98 C12.036,9.947 13.094,9.876 13.997,9.769 L14.997,9.625 C15.449,9.546 15.821,9.458 16.107,9.361 C16.35,9.279 16.997,9.06 16.997,8.498 C16.997,8.452 16.991,8.405 16.978,8.361 L14.995,1.413 Z" id="Fill-1" fill="#9CA4AA"></path>
    </g>
</svg>